<svg xmlns="http://www.w3.org/2000/svg" xmlns:xlink="http://www.w3.org/1999/xlink" version="1.1" id="Layer_1" x="0px" y="0px" width="100%" viewBox="0 0 1080 1080" enable-background="new 0 0 1080 1080" xml:space="preserve">
<path fill="#000000" opacity="1.000000" stroke="none" d=" M691.000000,1081.000000   C460.693176,1081.000000 230.886383,1081.000000 1.039782,1081.000000   C1.039782,721.068054 1.039782,361.136139 1.039782,1.102095   C360.890350,1.102095 720.780762,1.102095 1080.835571,1.102095   C1080.835571,360.999939 1080.835571,720.999939 1080.835571,1081.000000   C951.135681,1081.000000 821.317810,1081.000000 691.000000,1081.000000  M418.272247,312.002655   C421.100800,312.096222 423.929291,312.270416 426.757874,312.271393   C476.078827,312.288086 525.399780,312.283569 574.720764,312.283691   C576.466858,312.283691 578.213013,312.283691 579.859619,312.283691   C579.859619,322.909424 579.859619,332.873169 579.859619,342.684845   C562.259888,331.181366 545.048096,331.855896 528.070618,342.405731   C522.782837,339.346863 517.792175,335.977966 512.412781,333.429810   C486.326172,321.072906 459.618927,328.785492 446.507233,352.915527   C439.109161,366.530548 436.454803,381.562439 438.124695,396.957977   C439.524872,409.866821 445.176208,420.852600 456.221710,428.449432   C462.019867,432.437286 468.042664,433.163025 474.573151,429.956177   C485.695068,424.494690 493.661652,406.147003 489.802063,394.307312   C489.496674,393.370422 489.209167,392.209717 488.513367,391.652557   C482.865845,387.130524 484.166962,381.286224 485.441895,375.553192   C486.548950,370.575104 489.923706,368.467590 495.060577,369.093658   C503.973663,370.179901 507.678772,375.002502 508.393341,386.447479   C508.998901,396.146484 516.040710,402.952332 525.522522,403.002747   C534.846191,403.052338 541.974976,396.031525 542.449463,386.233337   C542.586304,383.407135 542.384460,380.564911 542.508362,377.737518   C542.894836,368.919220 547.653992,362.066833 554.689087,360.051025   C566.738037,356.598572 580.242310,366.896729 580.277283,379.682556   C580.336182,401.177002 580.295288,422.671753 580.284180,444.166351   C580.283508,445.382294 580.173218,446.598175 580.073975,448.633728   C578.578064,446.984131 577.722046,446.026794 576.850952,445.083313   C575.947021,444.104279 575.065552,443.100586 574.111023,442.172729   C553.866882,422.494141 530.417664,413.968567 502.489685,422.229156   C486.253937,427.031433 473.357300,437.376770 461.272186,448.738312   C452.336334,457.139130 452.012848,467.384918 460.175171,476.605652   C471.095215,488.941650 482.118164,501.186523 493.219818,513.607971   C491.639099,515.058899 490.094025,516.307800 488.750244,517.744934   C485.745178,520.958923 484.891235,524.782104 486.525360,528.848999   C488.137329,532.860840 491.373169,535.676819 495.631866,535.559021   C498.716003,535.473755 502.174866,534.183838 504.739990,532.391296   C528.082275,516.079224 551.264221,499.537750 574.495483,483.066711   C576.176270,481.875000 577.875854,480.709839 580.293213,479.026398   C580.293213,497.383514 580.292786,514.672424 580.293701,531.961365   C580.293884,534.793945 580.202820,537.630737 580.323303,540.458313   C580.598633,546.922363 584.915100,551.298157 590.959229,551.373413   C596.960327,551.448181 601.407227,547.029968 601.740479,540.620972   C601.809570,539.291443 601.754700,537.955505 601.754761,536.622498   C601.754883,463.807434 601.754822,390.992340 601.754761,318.177277   C601.754761,316.272491 601.754761,314.367706 601.754761,312.271698   C610.543213,312.271698 618.537415,312.381531 626.526855,312.233551   C631.961182,312.132874 636.093811,308.392456 636.956177,303.246948   C637.743042,298.551880 635.261719,293.644562 630.711914,291.890228   C628.621887,291.084381 626.169556,290.965118 623.881226,290.963501   C557.064636,290.916656 490.248108,290.921204 423.431549,290.936646   C421.437469,290.937103 419.443481,291.143036 416.461395,291.060547   C407.463867,291.024414 398.466339,290.954529 389.468842,290.962067   C381.187500,290.968994 377.251648,294.880035 377.149902,303.169006   C377.092651,307.834015 377.135590,312.500275 377.134979,317.165955   C377.134125,323.565582 377.134766,329.965240 377.134766,337.743286   C375.399170,335.650238 374.651703,334.649323 373.803650,333.742554   C368.926453,328.527618 364.649658,322.503601 359.023712,318.279755   C335.531250,300.642120 309.293640,298.641632 282.222504,307.631439   C259.983948,315.016418 245.633133,330.699524 239.682648,353.599670   C236.301819,366.610748 243.335541,375.988098 256.640320,377.144806   C267.456726,378.085175 278.036133,380.225220 287.582947,385.904327   C293.556458,389.457764 293.499969,395.173553 292.928619,400.893036   C292.439636,405.787903 289.676025,408.877411 284.719635,410.429565   C280.469604,411.760529 276.337952,413.734406 272.476196,415.978516   C266.665680,419.355072 263.265320,424.477203 262.974365,431.432526   C262.253662,448.660309 278.188141,461.573608 295.636047,457.478333   C318.985992,451.997772 333.278717,436.925598 337.569733,413.712524   C341.943115,390.053619 335.259918,369.445465 315.673187,354.247681   C307.609924,347.991180 298.489014,343.605042 288.148407,342.093903   C288.464966,341.334656 288.512115,340.951385 288.728699,340.753571   C289.340118,340.195099 289.958984,339.592987 290.683472,339.217743   C310.095795,329.163849 329.694977,327.497986 349.293396,338.499603   C360.529114,344.806763 367.945953,354.957031 374.687683,365.550781   C376.100525,367.770874 377.015869,370.727020 377.032745,373.351227   C377.201752,399.677948 377.134460,426.006165 377.134949,452.333984   C377.135254,467.664093 377.146484,482.994232 377.134369,498.324341   C377.130585,503.117401 379.180542,506.679993 383.486145,508.786407   C387.511902,510.755890 391.353973,509.885620 394.737854,507.301575   C398.210785,504.649597 398.944916,500.854950 398.937622,496.611633   C398.861572,452.287750 398.891205,407.963654 398.891449,363.639618   C398.891541,348.309509 399.057739,332.976471 398.788666,317.651093   C398.709137,313.121460 400.210388,311.817596 404.520996,312.102020   C408.820984,312.385712 413.165131,311.999573 418.272247,312.002655  M603.500000,589.827148   C586.002563,589.827087 568.505066,589.787354 551.007812,589.846863   C544.124939,589.870300 540.115723,593.618042 539.864746,599.961609   C539.595886,606.756470 543.504883,610.949463 550.444763,611.039246   C558.367920,611.141785 566.293518,611.062988 574.798096,611.062988   C574.798096,613.803406 574.798157,615.762146 574.798157,617.720886   C574.798462,657.882019 574.876770,698.043518 574.722290,738.204041   C574.696533,744.909058 577.090210,749.830322 582.755859,753.176575   C594.822083,760.303040 607.662964,762.004211 621.210266,758.465149   C636.066650,754.584229 648.159546,745.719543 660.405579,737.019470   C669.523682,730.541626 677.370728,723.149048 682.081238,712.768738   C683.343323,709.987610 685.309753,707.526123 687.168396,704.575684   C688.203796,705.916382 688.750793,706.745117 689.414917,707.465942   C696.314819,714.955444 703.874573,722.039917 714.717041,721.685059   C731.980347,721.119995 756.059204,710.350830 764.319763,688.525818   C768.276733,678.071472 768.421265,678.127258 779.426636,680.836853   C780.073059,680.996033 780.745605,681.066833 781.375671,681.271729   C791.718567,684.635803 794.574097,694.199463 787.361755,702.379944   C779.356201,711.460144 769.074646,717.262329 757.762085,721.208801   C738.418762,727.956909 718.951111,734.113281 698.255066,735.402283   C689.907593,735.922180 685.311523,740.852844 684.411255,748.584473   C683.670105,754.949524 687.746582,760.560852 695.319214,763.314087   C706.111328,767.237976 716.896179,771.190796 727.766785,774.888184   C752.024780,783.139038 776.322205,791.274658 800.642273,799.340759   C802.819092,800.062622 805.277527,799.935425 807.605164,800.202637   C807.782043,799.704346 807.958862,799.206116 808.135742,798.707825   C801.299500,789.800537 791.599426,784.276550 782.383484,778.284973   C772.959290,772.158020 763.209595,766.531921 753.148865,760.410583   C755.435852,759.861816 757.177185,759.460571 758.910034,759.025513   C776.589844,754.587646 793.805298,749.081360 808.778992,738.136597   C831.695312,721.386353 840.222717,698.745422 832.719299,672.520508   C831.209534,667.243774 828.264832,662.065918 824.882263,657.692871   C812.740417,641.994995 795.493530,634.693237 776.850952,630.270020   C768.377380,628.259521 759.950806,628.058777 753.023560,635.068481   C752.402893,635.696472 750.148010,635.018616 748.787048,634.552917   C742.537903,632.414795 736.451660,629.691101 730.082336,628.048279   C724.894592,626.710266 719.388672,626.605957 714.281006,625.985840   C714.281006,620.729858 714.281006,616.139343 714.281006,611.065857   C716.675354,611.065857 718.638123,611.065796 720.600952,611.065796   C759.928894,611.065918 799.256897,611.066345 838.584839,611.064941   C840.084534,611.064880 841.591614,611.140564 843.082458,611.020996   C847.718994,610.649353 850.877625,608.095032 852.427246,603.856384   C853.945618,599.703186 853.082397,595.466736 849.491943,593.079346   C846.675171,591.206360 842.848694,589.965271 839.467529,589.957947   C761.145264,589.788818 682.822632,589.827026 603.500000,589.827148  M519.325928,732.114258   C517.632019,730.286865 515.938110,728.459534 514.054199,726.427185   C531.709473,709.051270 535.482788,687.514282 532.207703,664.175171   C531.149597,656.634888 529.278259,649.077515 526.725769,641.902588   C518.735840,619.443298 504.669342,601.839478 481.390900,594.631592   C457.827545,587.335510 433.536896,586.919556 410.349396,596.574829   C390.079620,605.015076 376.856567,620.330078 372.309906,642.253235   C370.238312,652.242188 374.484680,657.026550 384.594147,657.351379   C396.953400,657.748413 409.152924,659.012207 420.502991,664.669495   C432.174011,670.486694 438.200806,679.780701 439.060608,692.745422   C439.919067,705.689880 434.191895,714.954651 423.306915,721.149292   C418.430298,723.924622 413.099884,725.957764 407.848969,728.003113   C403.381989,729.743103 398.733704,731.017578 394.165619,732.498047   C394.217621,732.958740 394.269623,733.419434 394.321655,733.880127   C396.871338,734.273621 399.449463,735.125244 401.965027,734.969116   C407.929749,734.598755 413.892792,733.938721 419.806671,733.060242   C438.432770,730.293518 453.856049,712.221497 454.446777,693.414429   C455.140869,671.315674 445.164917,655.605103 426.035400,645.723450   C417.920105,641.531372 408.940460,639.012573 400.238342,635.689270   C400.443085,635.446106 400.913177,634.811768 401.458740,634.250793   C418.437744,616.790588 439.177887,614.971008 461.552185,619.720093   C476.851715,622.967468 487.860229,631.427551 493.663696,646.088867   C498.422150,658.110291 499.733002,670.485596 497.656738,683.376526   C495.897125,694.301575 490.089600,701.728271 480.192078,705.950806   C475.046539,708.145935 469.549591,709.517395 463.843933,711.380981   C464.993073,722.029846 466.336121,732.763367 467.215759,743.534729   C467.533173,747.421875 468.825104,748.731934 472.776428,749.192993   C485.072052,750.627563 493.192902,758.672729 494.381378,771.046692   C494.962585,777.098450 494.063263,783.322571 493.538452,789.443298   C492.770081,798.405457 488.159332,805.079346 480.496887,809.595398   C471.334351,814.995544 461.291473,817.091858 450.768890,816.469177   C422.896576,814.819763 403.047791,800.514832 391.027588,776.017029   C385.822235,765.408264 383.032135,753.517151 379.943848,741.994446   C376.902100,730.645203 373.661499,719.443970 366.528290,709.962463   C358.189789,698.878906 346.212402,699.371338 338.556305,710.877075   C333.617096,718.299805 331.439056,726.757568 331.368958,735.515320   C331.133148,764.982666 341.352875,791.083069 358.715546,814.358704   C389.047913,855.020752 439.888062,871.182739 485.184021,855.160950   C535.971985,837.196533 553.769470,774.227051 519.325928,732.114258  M170.703949,268.499512   C170.703949,319.416412 170.703949,370.333282 170.703949,421.100159   C176.333145,421.100159 181.249390,421.100159 186.624054,421.100159   C186.624054,358.195099 186.624054,295.646881 186.624054,232.566101   C249.649200,232.566101 312.205780,232.566101 374.648926,232.566101   C374.648926,227.115082 374.648926,222.209671 374.648926,217.303421   C306.543762,217.303421 238.802002,217.303421 170.704025,217.303421   C170.704025,234.210754 170.704025,250.855103 170.703949,268.499512  M718.512268,846.063110   C714.232605,846.063110 709.952942,846.063110 705.605530,846.063110   C705.605530,851.628174 705.605530,856.674072 705.605530,861.638611   C773.687622,861.638611 841.394653,861.638611 909.107605,861.638611   C909.107605,793.336121 909.107605,725.324402 909.107605,657.434326   C903.954651,657.434326 899.186890,657.434326 893.881470,657.434326   C893.881470,720.398926 893.881470,783.079895 893.881470,846.063110   C835.392395,846.063110 777.449951,846.063110 718.512268,846.063110  z"/>
<path fill="#15A049" opacity="1.000000" stroke="none" d=" M604.000000,589.827026   C682.822632,589.827026 761.145264,589.788818 839.467529,589.957947   C842.848694,589.965271 846.675171,591.206360 849.491943,593.079346   C853.082397,595.466736 853.945618,599.703186 852.427246,603.856384   C850.877625,608.095032 847.718994,610.649353 843.082458,611.020996   C841.591614,611.140564 840.084534,611.064880 838.584839,611.064941   C799.256897,611.066345 759.928894,611.065918 720.600952,611.065796   C718.638123,611.065796 716.675354,611.065857 714.281006,611.065857   C714.281006,616.139343 714.281006,620.729858 714.281006,625.985840   C719.388672,626.605957 724.894592,626.710266 730.082336,628.048279   C736.451660,629.691101 742.537903,632.414795 748.787048,634.552917   C750.148010,635.018616 752.402893,635.696472 753.023560,635.068481   C759.950806,628.058777 768.377380,628.259521 776.850952,630.270020   C795.493530,634.693237 812.740417,641.994995 824.882263,657.692871   C828.264832,662.065918 831.209534,667.243774 832.719299,672.520508   C840.222717,698.745422 831.695312,721.386353 808.778992,738.136597   C793.805298,749.081360 776.589844,754.587646 758.910034,759.025513   C757.177185,759.460571 755.435852,759.861816 753.148865,760.410583   C763.209595,766.531921 772.959290,772.158020 782.383484,778.284973   C791.599426,784.276550 801.299500,789.800537 808.135742,798.707825   C807.958862,799.206116 807.782043,799.704346 807.605164,800.202637   C805.277527,799.935425 802.819092,800.062622 800.642273,799.340759   C776.322205,791.274658 752.024780,783.139038 727.766785,774.888184   C716.896179,771.190796 706.111328,767.237976 695.319214,763.314087   C687.746582,760.560852 683.670105,754.949524 684.411255,748.584473   C685.311523,740.852844 689.907593,735.922180 698.255066,735.402283   C718.951111,734.113281 738.418762,727.956909 757.762085,721.208801   C769.074646,717.262329 779.356201,711.460144 787.361755,702.379944   C794.574097,694.199463 791.718567,684.635803 781.375671,681.271729   C780.745605,681.066833 780.073059,680.996033 779.426636,680.836853   C768.421265,678.127258 768.276733,678.071472 764.319763,688.525818   C756.059204,710.350830 731.980347,721.119995 714.717041,721.685059   C703.874573,722.039917 696.314819,714.955444 689.414917,707.465942   C688.750793,706.745117 688.203796,705.916382 687.168396,704.575684   C685.309753,707.526123 683.343323,709.987610 682.081238,712.768738   C677.370728,723.149048 669.523682,730.541626 660.405579,737.019470   C648.159546,745.719543 636.066650,754.584229 621.210266,758.465149   C607.662964,762.004211 594.822083,760.303040 582.755859,753.176575   C577.090210,749.830322 574.696533,744.909058 574.722290,738.204041   C574.876770,698.043518 574.798462,657.882019 574.798157,617.720886   C574.798157,615.762146 574.798096,613.803406 574.798096,611.062988   C566.293518,611.062988 558.367920,611.141785 550.444763,611.039246   C543.504883,610.949463 539.595886,606.756470 539.864746,599.961609   C540.115723,593.618042 544.124939,589.870300 551.007812,589.846863   C568.505066,589.787354 586.002563,589.827087 604.000000,589.827026  M621.296570,734.842529   C630.279602,725.718994 639.626526,716.920227 648.141296,707.378845   C656.351257,698.179077 654.862732,690.215454 644.713318,683.119385   C630.742310,673.351257 613.995422,671.442200 598.035400,665.777405   C597.725403,668.949524 597.356323,671.237549 597.300171,673.533203   C596.811829,693.490784 596.366516,713.449402 595.937866,733.408447   C595.789551,740.311951 600.520081,744.385498 607.087708,742.191711   C611.867004,740.595337 616.180786,737.605225 621.296570,734.842529  M670.406372,611.058350   C646.485352,611.058350 622.564270,611.058350 598.045471,611.058350   C598.045471,616.408569 597.857056,621.198914 598.190857,625.952515   C598.265320,627.012512 600.065857,628.632996 601.258179,628.822571   C609.130432,630.074219 617.081299,630.830261 624.954773,632.075439   C644.027283,635.091797 662.505737,639.664124 677.222351,653.416016   C677.477783,653.654663 678.106750,653.493591 678.834167,653.534302   C678.232666,639.467651 677.638184,625.565247 677.017883,611.058472   C674.936279,611.058472 673.155640,611.058472 670.406372,611.058350  M739.906372,683.392761   C748.062134,673.773315 749.794922,661.311096 743.519043,652.554443   C736.298401,642.479614 725.291626,638.822632 713.362549,635.729736   C712.638245,646.173523 711.496094,655.937683 711.432922,665.708801   C711.383789,673.300598 712.385437,680.944153 713.487488,688.481750   C714.168274,693.137878 717.893311,695.151306 722.072021,693.306152   C728.065613,690.659790 733.647034,687.079895 739.906372,683.392761  z"/>
<path fill="#FBFBFB" opacity="1.000000" stroke="none" d=" M417.449432,291.253204   C419.443481,291.143036 421.437469,290.937103 423.431549,290.936646   C490.248108,290.921204 557.064636,290.916656 623.881226,290.963501   C626.169556,290.965118 628.621887,291.084381 630.711914,291.890228   C635.261719,293.644562 637.743042,298.551880 636.956177,303.246948   C636.093811,308.392456 631.961182,312.132874 626.526855,312.233551   C618.537415,312.381531 610.543213,312.271698 601.754761,312.271698   C601.754761,314.367706 601.754761,316.272491 601.754761,318.177277   C601.754822,390.992340 601.754883,463.807434 601.754761,536.622498   C601.754700,537.955505 601.809570,539.291443 601.740479,540.620972   C601.407227,547.029968 596.960327,551.448181 590.959229,551.373413   C584.915100,551.298157 580.598633,546.922363 580.323303,540.458313   C580.202820,537.630737 580.293884,534.793945 580.293701,531.961365   C580.292786,514.672424 580.293213,497.383514 580.293213,479.026398   C577.875854,480.709839 576.176270,481.875000 574.495483,483.066711   C551.264221,499.537750 528.082275,516.079224 504.739990,532.391296   C502.174866,534.183838 498.716003,535.473755 495.631866,535.559021   C491.373169,535.676819 488.137329,532.860840 486.525360,528.848999   C484.891235,524.782104 485.745178,520.958923 488.750244,517.744934   C490.094025,516.307800 491.639099,515.058899 493.219818,513.607971   C482.118164,501.186523 471.095215,488.941650 460.175171,476.605652   C452.012848,467.384918 452.336334,457.139130 461.272186,448.738312   C473.357300,437.376770 486.253937,427.031433 502.489685,422.229156   C530.417664,413.968567 553.866882,422.494141 574.111023,442.172729   C575.065552,443.100586 575.947021,444.104279 576.850952,445.083313   C577.722046,446.026794 578.578064,446.984131 580.073975,448.633728   C580.173218,446.598175 580.283508,445.382294 580.284180,444.166351   C580.295288,422.671753 580.336182,401.177002 580.277283,379.682556   C580.242310,366.896729 566.738037,356.598572 554.689087,360.051025   C547.653992,362.066833 542.894836,368.919220 542.508362,377.737518   C542.384460,380.564911 542.586304,383.407135 542.449463,386.233337   C541.974976,396.031525 534.846191,403.052338 525.522522,403.002747   C516.040710,402.952332 508.998901,396.146484 508.393341,386.447479   C507.678772,375.002502 503.973663,370.179901 495.060577,369.093658   C489.923706,368.467590 486.548950,370.575104 485.441895,375.553192   C484.166962,381.286224 482.865845,387.130524 488.513367,391.652557   C489.209167,392.209717 489.496674,393.370422 489.802063,394.307312   C493.661652,406.147003 485.695068,424.494690 474.573151,429.956177   C468.042664,433.163025 462.019867,432.437286 456.221710,428.449432   C445.176208,420.852600 439.524872,409.866821 438.124695,396.957977   C436.454803,381.562439 439.109161,366.530548 446.507233,352.915527   C459.618927,328.785492 486.326172,321.072906 512.412781,333.429810   C517.792175,335.977966 522.782837,339.346863 528.070618,342.405731   C545.048096,331.855896 562.259888,331.181366 579.859619,342.684845   C579.859619,332.873169 579.859619,322.909424 579.859619,312.283691   C578.213013,312.283691 576.466858,312.283691 574.720764,312.283691   C525.399780,312.283569 476.078827,312.288086 426.757874,312.271393   C423.929291,312.270416 421.100800,312.096222 417.660706,311.658508   C408.328278,305.455078 408.473022,298.200775 417.449432,291.253204  M511.057281,457.496185   C509.705505,458.667236 508.353760,459.838318 506.692780,461.277283   C513.747925,467.387390 520.583801,473.158783 527.225342,479.145813   C529.350464,481.061584 530.961060,483.548157 533.106140,486.134155   C539.866455,481.308105 547.144653,476.128357 554.405029,470.923645   C559.114868,467.547302 563.798462,464.134399 568.604370,460.657928   C543.473022,445.117859 526.516785,446.481812 511.057281,457.496185  z"/>
<path fill="#FCFCFC" opacity="1.000000" stroke="none" d=" M519.568359,732.380737   C553.769470,774.227051 535.971985,837.196533 485.184021,855.160950   C439.888062,871.182739 389.047913,855.020752 358.715546,814.358704   C341.352875,791.083069 331.133148,764.982666 331.368958,735.515320   C331.439056,726.757568 333.617096,718.299805 338.556305,710.877075   C346.212402,699.371338 358.189789,698.878906 366.528290,709.962463   C373.661499,719.443970 376.902100,730.645203 379.943848,741.994446   C383.032135,753.517151 385.822235,765.408264 391.027588,776.017029   C403.047791,800.514832 422.896576,814.819763 450.768890,816.469177   C461.291473,817.091858 471.334351,814.995544 480.496887,809.595398   C488.159332,805.079346 492.770081,798.405457 493.538452,789.443298   C494.063263,783.322571 494.962585,777.098450 494.381378,771.046692   C493.192902,758.672729 485.072052,750.627563 472.776428,749.192993   C468.825104,748.731934 467.533173,747.421875 467.215759,743.534729   C466.336121,732.763367 464.993073,722.029846 463.843933,711.380981   C469.549591,709.517395 475.046539,708.145935 480.192078,705.950806   C490.089600,701.728271 495.897125,694.301575 497.656738,683.376526   C499.733002,670.485596 498.422150,658.110291 493.663696,646.088867   C487.860229,631.427551 476.851715,622.967468 461.552185,619.720093   C439.177887,614.971008 418.437744,616.790588 401.458740,634.250793   C400.913177,634.811768 400.443085,635.446106 400.238342,635.689270   C408.940460,639.012573 417.920105,641.531372 426.035400,645.723450   C445.164917,655.605103 455.140869,671.315674 454.446777,693.414429   C453.856049,712.221497 438.432770,730.293518 419.806671,733.060242   C413.892792,733.938721 407.929749,734.598755 401.965027,734.969116   C399.449463,735.125244 396.871338,734.273621 394.321655,733.880127   C394.269623,733.419434 394.217621,732.958740 394.165619,732.498047   C398.733704,731.017578 403.381989,729.743103 407.848969,728.003113   C413.099884,725.957764 418.430298,723.924622 423.306915,721.149292   C434.191895,714.954651 439.919067,705.689880 439.060608,692.745422   C438.200806,679.780701 432.174011,670.486694 420.502991,664.669495   C409.152924,659.012207 396.953400,657.748413 384.594147,657.351379   C374.484680,657.026550 370.238312,652.242188 372.309906,642.253235   C376.856567,620.330078 390.079620,605.015076 410.349396,596.574829   C433.536896,586.919556 457.827545,587.335510 481.390900,594.631592   C504.669342,601.839478 518.735840,619.443298 526.725769,641.902588   C529.278259,649.077515 531.149597,656.634888 532.207703,664.175171   C535.482788,687.514282 531.709473,709.051270 514.054199,726.427185   C515.938110,728.459534 517.632019,730.286865 519.568359,732.380737  z"/>
<path fill="#159F49" opacity="1.000000" stroke="none" d=" M416.955414,291.156860   C408.473022,298.200775 408.328278,305.455078 417.269531,311.610718   C413.165131,311.999573 408.820984,312.385712 404.520996,312.102020   C400.210388,311.817596 398.709137,313.121460 398.788666,317.651093   C399.057739,332.976471 398.891541,348.309509 398.891449,363.639618   C398.891205,407.963654 398.861572,452.287750 398.937622,496.611633   C398.944916,500.854950 398.210785,504.649597 394.737854,507.301575   C391.353973,509.885620 387.511902,510.755890 383.486145,508.786407   C379.180542,506.679993 377.130585,503.117401 377.134369,498.324341   C377.146484,482.994232 377.135254,467.664093 377.134949,452.333984   C377.134460,426.006165 377.201752,399.677948 377.032745,373.351227   C377.015869,370.727020 376.100525,367.770874 374.687683,365.550781   C367.945953,354.957031 360.529114,344.806763 349.293396,338.499603   C329.694977,327.497986 310.095795,329.163849 290.683472,339.217743   C289.958984,339.592987 289.340118,340.195099 288.728699,340.753571   C288.512115,340.951385 288.464966,341.334656 288.148407,342.093903   C298.489014,343.605042 307.609924,347.991180 315.673187,354.247681   C335.259918,369.445465 341.943115,390.053619 337.569733,413.712524   C333.278717,436.925598 318.985992,451.997772 295.636047,457.478333   C278.188141,461.573608 262.253662,448.660309 262.974365,431.432526   C263.265320,424.477203 266.665680,419.355072 272.476196,415.978516   C276.337952,413.734406 280.469604,411.760529 284.719635,410.429565   C289.676025,408.877411 292.439636,405.787903 292.928619,400.893036   C293.499969,395.173553 293.556458,389.457764 287.582947,385.904327   C278.036133,380.225220 267.456726,378.085175 256.640320,377.144806   C243.335541,375.988098 236.301819,366.610748 239.682648,353.599670   C245.633133,330.699524 259.983948,315.016418 282.222504,307.631439   C309.293640,298.641632 335.531250,300.642120 359.023712,318.279755   C364.649658,322.503601 368.926453,328.527618 373.803650,333.742554   C374.651703,334.649323 375.399170,335.650238 377.134766,337.743286   C377.134766,329.965240 377.134125,323.565582 377.134979,317.165955   C377.135590,312.500275 377.092651,307.834015 377.149902,303.169006   C377.251648,294.880035 381.187500,290.968994 389.468842,290.962067   C398.466339,290.954529 407.463867,291.024414 416.955414,291.156860  z"/>
<path fill="#FAFAFA" opacity="1.000000" stroke="none" d=" M170.703979,267.999481   C170.704025,250.855103 170.704025,234.210754 170.704025,217.303421   C238.802002,217.303421 306.543762,217.303421 374.648926,217.303421   C374.648926,222.209671 374.648926,227.115082 374.648926,232.566101   C312.205780,232.566101 249.649200,232.566101 186.624054,232.566101   C186.624054,295.646881 186.624054,358.195099 186.624054,421.100159   C181.249390,421.100159 176.333145,421.100159 170.703949,421.100159   C170.703949,370.333282 170.703949,319.416412 170.703979,267.999481  z"/>
<path fill="#FAFAFA" opacity="1.000000" stroke="none" d=" M719.009888,846.063110   C777.449951,846.063110 835.392395,846.063110 893.881470,846.063110   C893.881470,783.079895 893.881470,720.398926 893.881470,657.434326   C899.186890,657.434326 903.954651,657.434326 909.107605,657.434326   C909.107605,725.324402 909.107605,793.336121 909.107605,861.638611   C841.394653,861.638611 773.687622,861.638611 705.605530,861.638611   C705.605530,856.674072 705.605530,851.628174 705.605530,846.063110   C709.952942,846.063110 714.232605,846.063110 719.009888,846.063110  z"/>
<path fill="#000201" opacity="1.000000" stroke="none" d=" M620.999329,735.039490   C616.180786,737.605225 611.867004,740.595337 607.087708,742.191711   C600.520081,744.385498 595.789551,740.311951 595.937866,733.408447   C596.366516,713.449402 596.811829,693.490784 597.300171,673.533203   C597.356323,671.237549 597.725403,668.949524 598.035400,665.777405   C613.995422,671.442200 630.742310,673.351257 644.713318,683.119385   C654.862732,690.215454 656.351257,698.179077 648.141296,707.378845   C639.626526,716.920227 630.279602,725.718994 620.999329,735.039490  z"/>
<path fill="#000301" opacity="1.000000" stroke="none" d=" M670.890747,611.058411   C673.155640,611.058472 674.936279,611.058472 677.017883,611.058472   C677.638184,625.565247 678.232666,639.467651 678.834167,653.534302   C678.106750,653.493591 677.477783,653.654663 677.222351,653.416016   C662.505737,639.664124 644.027283,635.091797 624.954773,632.075439   C617.081299,630.830261 609.130432,630.074219 601.258179,628.822571   C600.065857,628.632996 598.265320,627.012512 598.190857,625.952515   C597.857056,621.198914 598.045471,616.408569 598.045471,611.058350   C622.564270,611.058350 646.485352,611.058350 670.890747,611.058411  z"/>
<path fill="#000302" opacity="1.000000" stroke="none" d=" M739.655396,683.645630   C733.647034,687.079895 728.065613,690.659790 722.072021,693.306152   C717.893311,695.151306 714.168274,693.137878 713.487488,688.481750   C712.385437,680.944153 711.383789,673.300598 711.432922,665.708801   C711.496094,655.937683 712.638245,646.173523 713.362549,635.729736   C725.291626,638.822632 736.298401,642.479614 743.519043,652.554443   C749.794922,661.311096 748.062134,673.773315 739.655396,683.645630  z"/>
<path fill="#060606" opacity="1.000000" stroke="none" d=" M511.349670,457.284607   C526.516785,446.481812 543.473022,445.117859 568.604370,460.657928   C563.798462,464.134399 559.114868,467.547302 554.405029,470.923645   C547.144653,476.128357 539.866455,481.308105 533.106140,486.134155   C530.961060,483.548157 529.350464,481.061584 527.225342,479.145813   C520.583801,473.158783 513.747925,467.387390 506.692780,461.277283   C508.353760,459.838318 509.705505,458.667236 511.349670,457.284607  z"/>
</svg>
